<?xml version="1.0" encoding="utf-8"?>
<!DOCTYPE svg PUBLIC "-//W3C//DTD SVG 1.0//EN" "http://www.w3.org/TR/2001/REC-SVG-20010904/DTD/svg10.dtd">
<svg version="1.0" xmlns="http://www.w3.org/2000/svg" width="1016px" height="245px" viewBox="0 0 1016 245" preserveAspectRatio="xMidYMid meet">
 <g fill="#ffffff">
  <path d="M0 122.5 l0 -122.5 508 0 508 0 0 122.5 0 122.5 -508 0 -508 0 0 -122.5z m581.8 113 c4.9 -2.1 8.1 -5.2 10.3 -10 1.7 -3.6 1.9 -6.9 1.9 -29.7 l0 -25.8 3.3 0 c1.7 0 6.8 1.2 11.2 2.7 6.6 2.1 9.9 2.6 18.5 2.7 19.5 0 33.3 -5.7 47.5 -19.9 9.9 -9.9 14.3 -16.5 18.3 -27.7 2.3 -6.4 2.7 -8.8 2.7 -19.8 0 -13.9 -1 -18.2 -7.4 -30.5 -4.8 -9.4 -18.9 -23.7 -28.6 -29.1 -13.7 -7.5 -30.3 -10.3 -44.7 -7.3 -7.2 1.5 -22.1 8.8 -29 14.3 -10.8 8.6 -20.6 23.5 -24.5 37.1 -1.5 5.3 -1.7 13.1 -2.1 66.5 -0.3 54.2 -0.1 60.9 1.3 64.7 1.9 4.9 6.5 10 11 11.9 4 1.7 5.8 1.7 10.3 -0.1z m-48.7 -32.4 c3.7 -3.7 3.7 -5.3 -0.2 -8.5 l-3.1 -2.6 -253.5 0 c-237.7 0 -253.7 0.1 -256.4 1.7 -1.6 1 -3.2 2.6 -3.5 3.6 -0.7 2.2 2 6.5 4.9 7.7 1.3 0.5 111.5 0.9 255.5 0.9 l253.4 0.1 2.9 -2.9z m466.8 0.3 c4.2 -3.5 4.1 -6.8 -0.1 -9.4 -3.3 -2 -5.6 -2 -186.6 -2 -200.2 0 -188.3 -0.3 -189.8 5.6 -0.7 2.7 1.5 6 5.1 7.5 1.1 0.4 84.4 0.8 185.2 0.8 l183.1 0.1 3.1 -2.6z m-961.4 -29.4 c4.3 -1.1 10.2 -3.2 13.2 -4.7 14.9 -7.5 27.7 -24.2 31.5 -40.8 1 -4.5 1.3 -16.7 1.3 -50 l0 -44 -2.5 -4.5 c-7.2 -12.7 -21 -13.6 -28.8 -1.7 l-2.7 4 -0.5 47.1 -0.5 47.1 -2.5 4.3 c-3.5 6.2 -9.4 9.8 -17.6 10.6 -3.7 0.4 -7.9 1.3 -9.4 2.1 -3.8 2 -8.6 7.7 -10 11.9 -2.2 6.6 2.6 15.1 10.5 18.7 5.1 2.4 8.4 2.4 18 -0.1z m159 -1 c12.2 -3.8 20.2 -8.7 29.6 -18.1 20.2 -20.3 25.8 -46.5 15.4 -72.1 -6.9 -17 -25 -33.5 -43.5 -39.9 -8.8 -3 -23.9 -3.7 -33.4 -1.5 -10.1 2.4 -23.3 9.6 -31.6 17.3 -11.5 10.6 -18.6 23.2 -21.6 38.2 -2 10.3 -1.4 18.7 2.1 29.8 6.6 21 24.4 39 45.1 45.7 12.7 4.1 25.7 4.3 37.9 0.6z m163.5 0 c11.5 -3.3 19.3 -8.1 29.5 -18.4 14 -14.1 20.5 -28.8 20.5 -46.5 0 -30.1 -22 -57.8 -52.5 -66.2 -11 -3 -25.7 -2.4 -36.3 1.5 -4 1.5 -8.5 2.6 -10 2.4 -2.6 -0.3 -2.7 -0.6 -3.3 -6.8 -0.3 -3.6 -1.3 -7.9 -2.2 -9.7 -2.1 -4 -7.4 -8.1 -12.2 -9.4 -3.1 -0.9 -4.4 -0.7 -8.3 1.3 -2.5 1.3 -6 4 -7.6 6.1 l-3.1 3.9 0 44.6 c0 49.8 -0.2 48.1 7.3 62.6 4.4 8.5 17.2 22.2 25 27 16.8 10.2 34.8 12.7 53.2 7.6z m133.5 1.5 c19.3 -5 33.9 -20.3 37.6 -39.3 2.6 -13.7 -3.1 -29.3 -15 -40.5 -9.4 -8.8 -17.1 -12.4 -30.3 -14.1 -9 -1.2 -10.5 -1.7 -12.5 -4 -1.9 -2.3 -2.3 -3.9 -2.3 -9.6 0 -6.3 0.2 -7.1 3.1 -9.9 2.8 -2.8 3.6 -3.1 9.5 -3.1 7.7 0 10 1.3 14 7.6 3.4 5.3 9.6 9.4 14.4 9.4 7.2 0 17 -9.3 17 -16.1 0 -7.8 -14 -24.8 -24.8 -30.3 -8.6 -4.4 -17.9 -6 -25.9 -4.7 -25.2 4.3 -45.7 30.6 -41.5 53.3 2.7 14.6 13.5 29.4 26.1 35.7 6.7 3.4 16.9 6.1 23.5 6.1 3 0 4.5 0.7 7.2 3.4 3.2 3.2 3.4 3.8 3.4 10.1 0 6 -0.3 6.9 -2.9 9.6 -2.7 2.7 -3.5 2.9 -10.1 2.9 -6.7 0 -7.3 -0.2 -9.8 -3 -11.8 -13.4 -15.3 -15.4 -22.6 -13 -4.6 1.5 -11.3 8.9 -12.1 13.4 -0.9 4.7 2.6 12.1 9.8 20.6 6.5 7.7 14.4 12.8 23.6 15.2 8.3 2.1 13.1 2.2 20.6 0.3z m316 -1.9 c10.4 -3.3 19.2 -8.6 27 -16.2 12 -11.7 18.3 -23.5 21 -39.2 4.8 -27.7 -11.2 -56.5 -39.3 -70.6 -10.3 -5.2 -18.5 -6.9 -30.7 -6.3 -18.1 0.8 -30.4 6.6 -45 21.2 -9.8 9.7 -13.9 16.3 -17.4 27.9 -6.9 22.6 -1 46.1 16.2 64.3 18.4 19.5 44.1 26.6 68.2 18.9z m150.4 0.4 c9.2 -2.9 16.3 -7.3 23.5 -14.5 14.4 -14.4 16.2 -22.9 6.9 -31.7 -4.6 -4.4 -9.8 -6.1 -14.1 -4.7 -4.8 1.5 -7.2 3.5 -12.2 9.8 -5.8 7.3 -9.9 9.1 -20.7 9.1 -10.5 0 -15 -2 -19.8 -8.8 l-3 -4.4 -0.3 -26.8 -0.3 -26.8 9 -0.3 c8.2 -0.4 9.2 -0.6 12.8 -3.5 8.5 -6.9 10.5 -14 5.9 -21.3 -3.9 -6.2 -8.7 -8.5 -18.5 -9.1 l-8.4 -0.5 -1.7 -5.3 c-2.1 -6.4 -6 -10.8 -11.8 -13.4 -5.2 -2.3 -9.4 -1.4 -14.9 3.5 -7.3 6.4 -7.3 6.1 -7.3 54.2 0 48.9 0.3 51.6 7.1 64.7 13.4 25.7 41.6 38.1 67.8 29.8z"/>
  <path d="M614.3 139.7 c-8.7 -3.3 -17 -12.3 -19.4 -21.2 -0.6 -2.2 -0.9 -8 -0.7 -13 0.5 -10.7 3.2 -16.9 9.8 -22.9 7.2 -6.5 11.9 -8.1 24 -8.1 9.6 0 11 0.3 15.8 2.8 11 5.8 17 14.8 17.9 27 1.3 16.8 -6.6 30.3 -20.4 35.3 -4.7 1.6 -22.5 1.7 -27 0.1z"/>
  <path d="M165.6 139.5 c-7.7 -2.7 -16.3 -12.1 -18.6 -20.3 -1.5 -5.7 -1.2 -19.2 0.6 -24.5 2.1 -6.1 9.3 -14.1 15.8 -17.5 4.6 -2.4 6.2 -2.6 15.6 -2.7 9.3 0 11.1 0.3 16 2.6 6.8 3.2 12.6 8.8 15.4 14.8 1.8 3.8 2.1 6.5 2.1 16.1 0 10.1 -0.3 12 -2.3 16 -3.6 6.8 -9.9 12.7 -16 15 -6.4 2.4 -22.5 2.7 -28.6 0.5z"/>
  <path d="M326.1 137.9 c-12.1 -6.1 -17.8 -17.1 -16.8 -32.6 0.8 -13.8 6.6 -22.6 18.6 -28.5 3.9 -2 6.2 -2.3 15.1 -2.3 8.9 0 11.2 0.3 15.1 2.3 7 3.4 12.5 8.7 15.6 15 2.5 5.2 2.8 6.7 2.8 16.2 -0.1 12.1 -1.8 17 -8.7 24.1 -6.6 6.8 -12.4 8.9 -24.9 8.9 -9.8 0 -11 -0.2 -16.8 -3.1z"/>
  <path d="M777.7 139.6 c-8.6 -3.1 -15.1 -9.8 -18.3 -18.8 -0.8 -2.4 -1.4 -7.9 -1.4 -13.8 0 -8.8 0.3 -10.2 3.1 -15.9 3.8 -7.6 12 -14.2 20 -16.1 7 -1.7 19.2 -0.9 25 1.7 6.3 2.8 12.5 8.6 15.7 14.7 2.4 4.6 2.7 6.2 2.7 16.1 0 9.2 -0.4 11.8 -2.2 15.7 -3.1 6.7 -10.8 14.1 -16.8 16.1 -6 2.1 -22.3 2.2 -27.8 0.3z"/>
 </g>
 <g fill="#513f82">
  <path d="M568.5 238.6 c-4.5 -1.9 -9.1 -7 -11 -11.9 -1.4 -3.8 -1.6 -10.8 -1.3 -67.7 0.4 -70.5 0.2 -68.4 7.4 -82.5 7.5 -14.9 18.3 -25.4 33.9 -33 11.1 -5.4 16.5 -6.5 30.9 -6.5 13.5 0 23.2 2.4 34.1 8.4 9.7 5.4 23.8 19.7 28.6 29.1 6.6 12.8 7.4 16.3 7.4 33.5 0 14.3 -0.2 16.1 -2.7 22.8 -4.1 11.2 -8.4 17.8 -18.3 27.7 -14.7 14.7 -27.7 19.9 -50 20 -12.5 0 -18.2 -1 -29 -5.1 -1.3 -0.5 -1.5 2.4 -1.5 25.2 0 28.1 -0.5 30.9 -6.1 36.1 -5.4 5 -15.8 6.8 -22.4 3.9z m69.8 -102 c13.7 -4.9 22.7 -20.2 19.9 -34 -2 -9.9 -7.8 -17.2 -18.2 -22.7 -6.1 -3.2 -17.4 -3.3 -24.1 -0.2 -13.8 6.3 -21.8 22.1 -18 35.8 2.4 8.9 10.7 17.9 19.4 21.2 4.4 1.6 16.4 1.5 21 -0.1z"/>
  <path d="M18.3 208 c-4.3 -1.8 -6.7 -8.1 -4.9 -13.5 0.3 -1.2 1.9 -2.8 3.5 -3.8 2.7 -1.6 18.8 -1.7 259.5 -1.7 l256.6 0 2.9 2.8 c4.5 4.1 4.6 9.9 0.2 14.3 l-2.9 2.9 -256.4 -0.1 c-145.7 0 -257.2 -0.4 -258.5 -0.9z"/>
  <path d="M625.4 208 c-3 -1.2 -6.4 -5.8 -6.4 -8.7 0 -3.6 2.5 -7.8 5.5 -9.1 2 -0.9 46.5 -1.2 188.6 -1.2 203.5 0 190.7 -0.4 192.9 5.6 1.8 4.6 1.1 7.5 -2.4 11 l-3.4 3.4 -186.4 -0.1 c-102.4 0 -187.3 -0.4 -188.4 -0.9z"/>
  <path d="M17.5 177.1 c-12.5 -5.8 -15.4 -22.2 -5.7 -32.4 3.9 -4.2 7.1 -5.5 14.6 -6.3 8.2 -0.8 14.1 -4.4 17.6 -10.6 l2.5 -4.3 0.5 -47.1 0.5 -47.1 2.7 -4 c4.1 -6.3 9 -8.8 17 -8.8 5.8 0 7.2 0.4 11 3 2.3 1.7 5.4 5.1 6.8 7.5 l2.5 4.5 0 47 c0 35.8 -0.3 48.4 -1.3 53 -3.8 16.6 -16.6 33.3 -31.5 40.8 -12.3 6.2 -29.4 8.4 -37.2 4.8z"/>
  <path d="M166.1 178 c-15.1 -3.2 -26.3 -9.1 -36.6 -19.5 -13.6 -13.7 -20.2 -28.1 -21.2 -46.5 -1.7 -28.5 13.1 -54.2 38.6 -67.4 12.4 -6.4 19.5 -7.9 35.6 -7.4 10.2 0.3 14.4 0.9 19.5 2.7 18.6 6.4 36.6 23 43.5 39.9 3.7 9.1 5.8 22.3 5.2 32.3 -1.2 18.9 -7.3 32.4 -20.6 45.8 -9.4 9.4 -17.3 14.2 -29.6 18.1 -7.9 2.5 -26.8 3.6 -34.4 2z m25.1 -42 c6.1 -2.3 12.4 -8.2 16 -15 1.9 -3.7 2.3 -6 2.3 -13 0 -10.1 -2.1 -15.6 -8.1 -21.5 -6.3 -6.1 -13.5 -9 -22.4 -8.9 -9.3 0 -15.6 3 -22.3 10.4 -9.5 10.5 -10.4 24.8 -2.4 36.6 3.9 5.7 9.1 10.1 14.3 11.9 5.8 2.1 16.4 1.9 22.6 -0.5z"/>
  <path d="M328 177.6 c-15 -3.2 -25.6 -9.3 -36.7 -21 -8.1 -8.5 -13.4 -17.1 -16.9 -27.6 -1.8 -5.1 -1.9 -9.2 -1.9 -53.2 l0 -47.6 3.1 -3.9 c4.7 -5.9 10.6 -8.6 17.8 -8 11 1 18.6 9.2 18.6 20.2 0 2.9 0.2 5.4 0.5 5.7 0.3 0.3 3.6 -0.6 7.3 -2 5.6 -2.1 8.9 -2.6 20.3 -3 11.7 -0.4 14.6 -0.1 21.4 1.7 24.6 6.8 44.9 27.2 50.9 51.2 2.1 8.4 2.1 27.3 0.1 35.4 -0.8 3.3 -3.4 9.8 -5.7 14.5 -3.4 6.8 -6.1 10.4 -13.3 17.6 -10.2 10.3 -17.9 15.1 -29.5 18.4 -9.6 2.8 -26.9 3.5 -36 1.6z m27.7 -42 c6.2 -2.9 12.3 -9 15.4 -15.4 3.5 -7.2 3.3 -17.9 -0.4 -25.4 -3.1 -6.3 -8.6 -11.6 -15.6 -15 -3.5 -1.8 -6.3 -2.3 -12.1 -2.3 -5.8 0 -8.6 0.5 -12.1 2.3 -24 11.8 -25.1 43.5 -1.8 55.1 8.3 4.1 18.6 4.4 26.6 0.7z"/>
  <path d="M470.9 177.2 c-9.2 -2.4 -17.1 -7.5 -23.6 -15.2 -12 -14.2 -13.6 -25.7 -5 -34.9 4.1 -4.3 8.4 -6.1 14.8 -6.1 6.4 0 11 2.1 15.1 7.1 7.8 9.5 8.4 9.9 12.8 9.9 5.6 0 10 -4.2 10 -9.5 0 -5.3 -5.3 -10.5 -10.6 -10.5 -12.5 -0.1 -26.8 -6.1 -35.4 -14.9 -16 -16.4 -19.5 -40.2 -8.8 -60.3 4 -7.5 14.7 -17.6 23 -21.7 13.1 -6.5 29.9 -6.5 43.7 -0.1 8.1 3.8 20 15.5 23.6 23.1 7.1 15.4 -1.4 29.9 -17.5 29.9 -7.9 0 -13.3 -2.9 -17.4 -9.4 -1.6 -2.5 -3.9 -5.2 -5.2 -6.1 -9.3 -6.1 -20.4 6.6 -13.1 15.1 2 2.3 3.5 2.8 12.5 4 13.1 1.7 20.9 5.3 30.1 14 7.7 7.2 12.3 15 14.6 24.5 4.2 18 -0.6 35.2 -13.4 47.9 -13.3 13.2 -31.7 18 -50.2 13.2z"/>
  <path d="M775.6 177.4 c-18.8 -4.2 -34.5 -15.3 -45.5 -32.3 -12.6 -19.6 -13.4 -49.4 -1.8 -71.6 4.1 -7.8 19 -22.8 27.7 -27.8 10.6 -6.1 17.7 -8 32.5 -8.5 15.4 -0.5 22.9 1 33.7 6.4 29.3 14.7 44.9 44.8 39.4 76.2 -2.8 16.1 -9 27.8 -21.1 39.6 -12.9 12.6 -27.5 18.6 -46.5 19.2 -8 0.3 -13.6 -0.1 -18.4 -1.2z m26.9 -41.1 c6 -2 13.7 -9.4 16.8 -16.1 1.7 -3.6 2.2 -6.5 2.1 -12.7 0 -9.6 -2.7 -15.9 -9.4 -21.9 -11.6 -10.4 -26.5 -11.2 -38.9 -2.1 -19.4 14.3 -14.9 45 7.6 53.1 5.3 1.8 16 1.7 21.8 -0.3z"/>
  <path d="M930 177.5 c-16.7 -3.8 -31.6 -15.5 -39.9 -31.3 -6.8 -13.3 -7.1 -15.5 -7.1 -67.7 0 -42.7 0.2 -46.3 1.9 -50 8.2 -17.7 32 -16 38.1 2.7 l1.7 5.3 8.4 0.5 c6.5 0.4 9.3 1 12.2 2.9 10.5 6.5 12.5 20.8 4.1 30.1 -5 5.5 -8.8 7 -17.9 7 l-7.6 0 0.3 23.9 0.3 23.9 3 4.4 c4.3 6 9.6 8.8 16.8 8.8 7.5 0 12.5 -2.6 17.7 -9.1 4.8 -6.1 7.3 -8.2 11.9 -9.7 14.2 -4.9 28.8 7.4 26.5 22.4 -0.8 5.5 -4.9 11.8 -13 19.9 -11.4 11.4 -23.1 16.3 -40.4 17 -7.1 0.3 -12.6 0 -17 -1z"/>
 </g>
</svg>